<?xml version="1.0" encoding="UTF-8" standalone="no"?><svg xmlns="http://www.w3.org/2000/svg" xmlns:xlink="http://www.w3.org/1999/xlink" contentScriptType="application/ecmascript" contentStyleType="text/css" height="522px" preserveAspectRatio="none" style="width:1064px;height:522px;" version="1.1" viewBox="0 0 1064 522" width="1064px" zoomAndPan="magnify"><defs><filter height="300%" id="f56a1a7" width="300%" x="-1" y="-1"><feGaussianBlur result="blurOut" stdDeviation="2.0"/><feColorMatrix in="blurOut" result="blurOut2" type="matrix" values="0 0 0 0 0 0 0 0 0 0 0 0 0 0 0 0 0 0 .4 0"/><feOffset dx="4.0" dy="4.0" in="blurOut2" result="blurOut3"/><feBlend in="SourceGraphic" in2="blurOut3" mode="normal"/></filter></defs><g><!--class Helper::Configurable--><rect fill="#F8F8F8" filter="url(#f56a1a7)" height="48" style="stroke: #383838; stroke-width: 1.5;" width="160" x="31.5" y="352"/><ellipse cx="46.5" cy="368" fill="#C2C2C2" rx="11" ry="11" style="stroke: #383838; stroke-width: 1.0;"/><path d="M49.4688,373.6406 Q48.8906,373.9375 48.25,374.0859 Q47.6094,374.2344 46.9063,374.2344 Q44.4063,374.2344 43.0859,372.5859 Q41.7656,370.9375 41.7656,367.8125 Q41.7656,364.6875 43.0859,363.0313 Q44.4063,361.375 46.9063,361.375 Q47.6094,361.375 48.2578,361.5313 Q48.9063,361.6875 49.4688,361.9844 L49.4688,364.7031 Q48.8438,364.125 48.25,363.8516 Q47.6563,363.5781 47.0313,363.5781 Q45.6875,363.5781 45,364.6484 Q44.3125,365.7188 44.3125,367.8125 Q44.3125,369.9063 45,370.9766 Q45.6875,372.0469 47.0313,372.0469 Q47.6563,372.0469 48.25,371.7734 Q48.8438,371.5 49.4688,370.9219 L49.4688,373.6406 Z "/><text fill="#000000" font-family="sans-serif" font-size="12" lengthAdjust="spacingAndGlyphs" textLength="128" x="60.5" y="372.1543">Helper::Configurable</text><line style="stroke: #383838; stroke-width: 1.5;" x1="32.5" x2="190.5" y1="384" y2="384"/><line style="stroke: #383838; stroke-width: 1.5;" x1="32.5" x2="190.5" y1="392" y2="392"/><!--class Helper::Configuration--><rect fill="#F8F8F8" filter="url(#f56a1a7)" height="48" style="stroke: #383838; stroke-width: 1.5;" width="165" x="402" y="225"/><ellipse cx="417" cy="241" fill="#C2C2C2" rx="11" ry="11" style="stroke: #383838; stroke-width: 1.0;"/><path d="M419.9688,246.6406 Q419.3906,246.9375 418.75,247.0859 Q418.1094,247.2344 417.4063,247.2344 Q414.9063,247.2344 413.5859,245.5859 Q412.2656,243.9375 412.2656,240.8125 Q412.2656,237.6875 413.5859,236.0313 Q414.9063,234.375 417.4063,234.375 Q418.1094,234.375 418.7578,234.5313 Q419.4063,234.6875 419.9688,234.9844 L419.9688,237.7031 Q419.3438,237.125 418.75,236.8516 Q418.1563,236.5781 417.5313,236.5781 Q416.1875,236.5781 415.5,237.6484 Q414.8125,238.7188 414.8125,240.8125 Q414.8125,242.9063 415.5,243.9766 Q416.1875,245.0469 417.5313,245.0469 Q418.1563,245.0469 418.75,244.7734 Q419.3438,244.5 419.9688,243.9219 L419.9688,246.6406 Z "/><text fill="#000000" font-family="sans-serif" font-size="12" lengthAdjust="spacingAndGlyphs" textLength="133" x="431" y="245.1543">Helper::Configuration</text><line style="stroke: #383838; stroke-width: 1.5;" x1="403" x2="566" y1="257" y2="257"/><line style="stroke: #383838; stroke-width: 1.5;" x1="403" x2="566" y1="265" y2="265"/><!--class Helper::Confmanager--><rect fill="#F8F8F8" filter="url(#f56a1a7)" height="48" style="stroke: #383838; stroke-width: 1.5;" width="165" x="202" y="225"/><ellipse cx="217" cy="241" fill="#C2C2C2" rx="11" ry="11" style="stroke: #383838; stroke-width: 1.0;"/><path d="M219.9688,246.6406 Q219.3906,246.9375 218.75,247.0859 Q218.1094,247.2344 217.4063,247.2344 Q214.9063,247.2344 213.5859,245.5859 Q212.2656,243.9375 212.2656,240.8125 Q212.2656,237.6875 213.5859,236.0313 Q214.9063,234.375 217.4063,234.375 Q218.1094,234.375 218.7578,234.5313 Q219.4063,234.6875 219.9688,234.9844 L219.9688,237.7031 Q219.3438,237.125 218.75,236.8516 Q218.1563,236.5781 217.5313,236.5781 Q216.1875,236.5781 215.5,237.6484 Q214.8125,238.7188 214.8125,240.8125 Q214.8125,242.9063 215.5,243.9766 Q216.1875,245.0469 217.5313,245.0469 Q218.1563,245.0469 218.75,244.7734 Q219.3438,244.5 219.9688,243.9219 L219.9688,246.6406 Z "/><text fill="#000000" font-family="sans-serif" font-size="12" lengthAdjust="spacingAndGlyphs" textLength="133" x="231" y="245.1543">Helper::Confmanager</text><line style="stroke: #383838; stroke-width: 1.5;" x1="203" x2="366" y1="257" y2="257"/><line style="stroke: #383838; stroke-width: 1.5;" x1="203" x2="366" y1="265" y2="265"/><!--class Helper::Config::PuppetConfig--><rect fill="#F8F8F8" filter="url(#f56a1a7)" height="48" style="stroke: #383838; stroke-width: 1.5;" width="212" x="248.5" y="463"/><ellipse cx="263.5" cy="479" fill="#C2C2C2" rx="11" ry="11" style="stroke: #383838; stroke-width: 1.0;"/><path d="M266.4688,484.6406 Q265.8906,484.9375 265.25,485.0859 Q264.6094,485.2344 263.9063,485.2344 Q261.4063,485.2344 260.0859,483.5859 Q258.7656,481.9375 258.7656,478.8125 Q258.7656,475.6875 260.0859,474.0313 Q261.4063,472.375 263.9063,472.375 Q264.6094,472.375 265.2578,472.5313 Q265.9063,472.6875 266.4688,472.9844 L266.4688,475.7031 Q265.8438,475.125 265.25,474.8516 Q264.6563,474.5781 264.0313,474.5781 Q262.6875,474.5781 262,475.6484 Q261.3125,476.7188 261.3125,478.8125 Q261.3125,480.9063 262,481.9766 Q262.6875,483.0469 264.0313,483.0469 Q264.6563,483.0469 265.25,482.7734 Q265.8438,482.5 266.4688,481.9219 L266.4688,484.6406 Z "/><text fill="#000000" font-family="sans-serif" font-size="12" lengthAdjust="spacingAndGlyphs" textLength="180" x="277.5" y="483.1543">Helper::Config::PuppetConfig</text><line style="stroke: #383838; stroke-width: 1.5;" x1="249.5" x2="459.5" y1="495" y2="495"/><line style="stroke: #383838; stroke-width: 1.5;" x1="249.5" x2="459.5" y1="503" y2="503"/><!--class Helper::Config::ShellConfig--><rect fill="#F8F8F8" filter="url(#f56a1a7)" height="48" style="stroke: #383838; stroke-width: 1.5;" width="197" x="540" y="463"/><ellipse cx="555" cy="479" fill="#C2C2C2" rx="11" ry="11" style="stroke: #383838; stroke-width: 1.0;"/><path d="M557.9688,484.6406 Q557.3906,484.9375 556.75,485.0859 Q556.1094,485.2344 555.4063,485.2344 Q552.9063,485.2344 551.5859,483.5859 Q550.2656,481.9375 550.2656,478.8125 Q550.2656,475.6875 551.5859,474.0313 Q552.9063,472.375 555.4063,472.375 Q556.1094,472.375 556.7578,472.5313 Q557.4063,472.6875 557.9688,472.9844 L557.9688,475.7031 Q557.3438,475.125 556.75,474.8516 Q556.1563,474.5781 555.5313,474.5781 Q554.1875,474.5781 553.5,475.6484 Q552.8125,476.7188 552.8125,478.8125 Q552.8125,480.9063 553.5,481.9766 Q554.1875,483.0469 555.5313,483.0469 Q556.1563,483.0469 556.75,482.7734 Q557.3438,482.5 557.9688,481.9219 L557.9688,484.6406 Z "/><text fill="#000000" font-family="sans-serif" font-size="12" lengthAdjust="spacingAndGlyphs" textLength="165" x="569" y="483.1543">Helper::Config::ShellConfig</text><line style="stroke: #383838; stroke-width: 1.5;" x1="541" x2="736" y1="495" y2="495"/><line style="stroke: #383838; stroke-width: 1.5;" x1="541" x2="736" y1="503" y2="503"/><!--class Helper::Config::VagrantConfig--><rect fill="#F8F8F8" filter="url(#f56a1a7)" height="48" style="stroke: #383838; stroke-width: 1.5;" width="217" x="816" y="463"/><ellipse cx="831" cy="479" fill="#C2C2C2" rx="11" ry="11" style="stroke: #383838; stroke-width: 1.0;"/><path d="M833.9688,484.6406 Q833.3906,484.9375 832.75,485.0859 Q832.1094,485.2344 831.4063,485.2344 Q828.9063,485.2344 827.5859,483.5859 Q826.2656,481.9375 826.2656,478.8125 Q826.2656,475.6875 827.5859,474.0313 Q828.9063,472.375 831.4063,472.375 Q832.1094,472.375 832.7578,472.5313 Q833.4063,472.6875 833.9688,472.9844 L833.9688,475.7031 Q833.3438,475.125 832.75,474.8516 Q832.1563,474.5781 831.5313,474.5781 Q830.1875,474.5781 829.5,475.6484 Q828.8125,476.7188 828.8125,478.8125 Q828.8125,480.9063 829.5,481.9766 Q830.1875,483.0469 831.5313,483.0469 Q832.1563,483.0469 832.75,482.7734 Q833.3438,482.5 833.9688,481.9219 L833.9688,484.6406 Z "/><text fill="#000000" font-family="sans-serif" font-size="12" lengthAdjust="spacingAndGlyphs" textLength="185" x="845" y="483.1543">Helper::Config::VagrantConfig</text><line style="stroke: #383838; stroke-width: 1.5;" x1="817" x2="1032" y1="495" y2="495"/><line style="stroke: #383838; stroke-width: 1.5;" x1="817" x2="1032" y1="503" y2="503"/><!--class Helper::DISTRIBUTION::PuppetConfig--><rect fill="#F8F8F8" filter="url(#f56a1a7)" height="48" style="stroke: #383838; stroke-width: 1.5;" width="256" x="226.5" y="352"/><ellipse cx="241.5" cy="368" fill="#C2C2C2" rx="11" ry="11" style="stroke: #383838; stroke-width: 1.0;"/><path d="M244.4688,373.6406 Q243.8906,373.9375 243.25,374.0859 Q242.6094,374.2344 241.9063,374.2344 Q239.4063,374.2344 238.0859,372.5859 Q236.7656,370.9375 236.7656,367.8125 Q236.7656,364.6875 238.0859,363.0313 Q239.4063,361.375 241.9063,361.375 Q242.6094,361.375 243.2578,361.5313 Q243.9063,361.6875 244.4688,361.9844 L244.4688,364.7031 Q243.8438,364.125 243.25,363.8516 Q242.6563,363.5781 242.0313,363.5781 Q240.6875,363.5781 240,364.6484 Q239.3125,365.7188 239.3125,367.8125 Q239.3125,369.9063 240,370.9766 Q240.6875,372.0469 242.0313,372.0469 Q242.6563,372.0469 243.25,371.7734 Q243.8438,371.5 244.4688,370.9219 L244.4688,373.6406 Z "/><text fill="#000000" font-family="sans-serif" font-size="12" lengthAdjust="spacingAndGlyphs" textLength="224" x="255.5" y="372.1543">Helper::DISTRIBUTION::PuppetConfig</text><line style="stroke: #383838; stroke-width: 1.5;" x1="227.5" x2="481.5" y1="384" y2="384"/><line style="stroke: #383838; stroke-width: 1.5;" x1="227.5" x2="481.5" y1="392" y2="392"/><!--class Helper::DISTRIBUTION::ShellConfig--><rect fill="#F8F8F8" filter="url(#f56a1a7)" height="48" style="stroke: #383838; stroke-width: 1.5;" width="241" x="518" y="352"/><ellipse cx="533" cy="368" fill="#C2C2C2" rx="11" ry="11" style="stroke: #383838; stroke-width: 1.0;"/><path d="M535.9688,373.6406 Q535.3906,373.9375 534.75,374.0859 Q534.1094,374.2344 533.4063,374.2344 Q530.9063,374.2344 529.5859,372.5859 Q528.2656,370.9375 528.2656,367.8125 Q528.2656,364.6875 529.5859,363.0313 Q530.9063,361.375 533.4063,361.375 Q534.1094,361.375 534.7578,361.5313 Q535.4063,361.6875 535.9688,361.9844 L535.9688,364.7031 Q535.3438,364.125 534.75,363.8516 Q534.1563,363.5781 533.5313,363.5781 Q532.1875,363.5781 531.5,364.6484 Q530.8125,365.7188 530.8125,367.8125 Q530.8125,369.9063 531.5,370.9766 Q532.1875,372.0469 533.5313,372.0469 Q534.1563,372.0469 534.75,371.7734 Q535.3438,371.5 535.9688,370.9219 L535.9688,373.6406 Z "/><text fill="#000000" font-family="sans-serif" font-size="12" lengthAdjust="spacingAndGlyphs" textLength="209" x="547" y="372.1543">Helper::DISTRIBUTION::ShellConfig</text><line style="stroke: #383838; stroke-width: 1.5;" x1="519" x2="758" y1="384" y2="384"/><line style="stroke: #383838; stroke-width: 1.5;" x1="519" x2="758" y1="392" y2="392"/><!--class Helper::DISTRIBUTION::VagrantConfig--><rect fill="#F8F8F8" filter="url(#f56a1a7)" height="48" style="stroke: #383838; stroke-width: 1.5;" width="261" x="794" y="352"/><ellipse cx="809" cy="368" fill="#C2C2C2" rx="11" ry="11" style="stroke: #383838; stroke-width: 1.0;"/><path d="M811.9688,373.6406 Q811.3906,373.9375 810.75,374.0859 Q810.1094,374.2344 809.4063,374.2344 Q806.9063,374.2344 805.5859,372.5859 Q804.2656,370.9375 804.2656,367.8125 Q804.2656,364.6875 805.5859,363.0313 Q806.9063,361.375 809.4063,361.375 Q810.1094,361.375 810.7578,361.5313 Q811.4063,361.6875 811.9688,361.9844 L811.9688,364.7031 Q811.3438,364.125 810.75,363.8516 Q810.1563,363.5781 809.5313,363.5781 Q808.1875,363.5781 807.5,364.6484 Q806.8125,365.7188 806.8125,367.8125 Q806.8125,369.9063 807.5,370.9766 Q808.1875,372.0469 809.5313,372.0469 Q810.1563,372.0469 810.75,371.7734 Q811.3438,371.5 811.9688,370.9219 L811.9688,373.6406 Z "/><text fill="#000000" font-family="sans-serif" font-size="12" lengthAdjust="spacingAndGlyphs" textLength="229" x="823" y="372.1543">Helper::DISTRIBUTION::VagrantConfig</text><line style="stroke: #383838; stroke-width: 1.5;" x1="795" x2="1054" y1="384" y2="384"/><line style="stroke: #383838; stroke-width: 1.5;" x1="795" x2="1054" y1="392" y2="392"/><!--class Helper::User--><rect fill="#F8F8F8" filter="url(#f56a1a7)" height="86.4141" style="stroke: #383838; stroke-width: 1.5;" width="110" x="56.5" y="206"/><ellipse cx="71.5" cy="222" fill="#C2C2C2" rx="11" ry="11" style="stroke: #383838; stroke-width: 1.0;"/><path d="M74.4688,227.6406 Q73.8906,227.9375 73.25,228.0859 Q72.6094,228.2344 71.9063,228.2344 Q69.4063,228.2344 68.0859,226.5859 Q66.7656,224.9375 66.7656,221.8125 Q66.7656,218.6875 68.0859,217.0313 Q69.4063,215.375 71.9063,215.375 Q72.6094,215.375 73.2578,215.5313 Q73.9063,215.6875 74.4688,215.9844 L74.4688,218.7031 Q73.8438,218.125 73.25,217.8516 Q72.6563,217.5781 72.0313,217.5781 Q70.6875,217.5781 70,218.6484 Q69.3125,219.7188 69.3125,221.8125 Q69.3125,223.9063 70,224.9766 Q70.6875,226.0469 72.0313,226.0469 Q72.6563,226.0469 73.25,225.7734 Q73.8438,225.5 74.4688,224.9219 L74.4688,227.6406 Z "/><text fill="#000000" font-family="sans-serif" font-size="12" lengthAdjust="spacingAndGlyphs" textLength="78" x="85.5" y="226.1543">Helper::User</text><line style="stroke: #383838; stroke-width: 1.5;" x1="57.5" x2="165.5" y1="238" y2="238"/><text fill="#000000" font-family="sans-serif" font-size="11" lengthAdjust="spacingAndGlyphs" textLength="54" x="62.5" y="252.2104">Integer id</text><text fill="#000000" font-family="sans-serif" font-size="11" lengthAdjust="spacingAndGlyphs" textLength="69" x="62.5" y="265.0151">String email</text><text fill="#000000" font-family="sans-serif" font-size="11" lengthAdjust="spacingAndGlyphs" textLength="69" x="62.5" y="277.8198">String token</text><line style="stroke: #383838; stroke-width: 1.5;" x1="57.5" x2="165.5" y1="284.4141" y2="284.4141"/><!--class Helper::VM--><rect fill="#F8F8F8" filter="url(#f56a1a7)" height="137.6328" style="stroke: #383838; stroke-width: 1.5;" width="211" x="6" y="8"/><ellipse cx="73.75" cy="24" fill="#C2C2C2" rx="11" ry="11" style="stroke: #383838; stroke-width: 1.0;"/><path d="M76.7188,29.6406 Q76.1406,29.9375 75.5,30.0859 Q74.8594,30.2344 74.1563,30.2344 Q71.6563,30.2344 70.3359,28.5859 Q69.0156,26.9375 69.0156,23.8125 Q69.0156,20.6875 70.3359,19.0313 Q71.6563,17.375 74.1563,17.375 Q74.8594,17.375 75.5078,17.5313 Q76.1563,17.6875 76.7188,17.9844 L76.7188,20.7031 Q76.0938,20.125 75.5,19.8516 Q74.9063,19.5781 74.2813,19.5781 Q72.9375,19.5781 72.25,20.6484 Q71.5625,21.7188 71.5625,23.8125 Q71.5625,25.9063 72.25,26.9766 Q72.9375,28.0469 74.2813,28.0469 Q74.9063,28.0469 75.5,27.7734 Q76.0938,27.5 76.7188,26.9219 L76.7188,29.6406 Z "/><text fill="#000000" font-family="sans-serif" font-size="12" lengthAdjust="spacingAndGlyphs" textLength="67" x="94.25" y="28.1543">Helper::VM</text><line style="stroke: #383838; stroke-width: 1.5;" x1="7" x2="216" y1="40" y2="40"/><text fill="#000000" font-family="sans-serif" font-size="11" lengthAdjust="spacingAndGlyphs" textLength="111" x="12" y="54.2104">Helper::User owner</text><text fill="#000000" font-family="sans-serif" font-size="11" lengthAdjust="spacingAndGlyphs" textLength="102" x="12" y="67.0151">String distribution</text><text fill="#000000" font-family="sans-serif" font-size="11" lengthAdjust="spacingAndGlyphs" textLength="59" x="12" y="79.8198">String title</text><text fill="#000000" font-family="sans-serif" font-size="11" lengthAdjust="spacingAndGlyphs" textLength="48" x="12" y="92.6245">String ip</text><text fill="#000000" font-family="sans-serif" font-size="11" lengthAdjust="spacingAndGlyphs" textLength="61" x="12" y="105.4292">String root</text><text fill="#000000" font-family="sans-serif" font-size="11" lengthAdjust="spacingAndGlyphs" textLength="88" x="12" y="118.2339">String manifest</text><text fill="#000000" font-family="sans-serif" font-size="11" lengthAdjust="spacingAndGlyphs" textLength="199" x="12" y="131.0386">Helper::Configuration configuration</text><line style="stroke: #383838; stroke-width: 1.5;" x1="7" x2="216" y1="137.6328" y2="137.6328"/><!--class Helper::Environment--><rect fill="#F8F8F8" filter="url(#f56a1a7)" height="53.9375" style="stroke: #383838; stroke-width: 1.5;" width="159" x="32" y="460"/><ellipse cx="47" cy="478.9688" fill="#929292" rx="11" ry="11" style="stroke: #383838; stroke-width: 1.0;"/><path d="M46.4844,479.5313 Q44.625,478.8281 43.9766,478.0547 Q43.3281,477.2813 43.3281,475.9688 Q43.3281,474.2813 44.4063,473.3125 Q45.4844,472.3438 47.3594,472.3438 Q48.2188,472.3438 49.0703,472.5391 Q49.9219,472.7344 50.7656,473.125 L50.7656,475.5156 Q49.9844,474.9531 49.1641,474.6641 Q48.3438,474.375 47.5469,474.375 Q46.6719,474.375 46.1953,474.7344 Q45.7188,475.0938 45.7188,475.75 Q45.7188,476.2656 46.0625,476.6016 Q46.4063,476.9375 47.5,477.3438 L48.5625,477.75 Q50.0469,478.2969 50.7578,479.2031 Q51.4688,480.1094 51.4688,481.4844 Q51.4688,483.3594 50.3594,484.2813 Q49.25,485.2031 47,485.2031 Q46.0781,485.2031 45.1563,484.9844 Q44.2344,484.7656 43.375,484.3438 L43.375,481.8125 Q44.3438,482.5 45.2656,482.8438 Q46.1875,483.1875 47.0781,483.1875 Q47.9844,483.1875 48.4844,482.7734 Q48.9844,482.3594 48.9844,481.625 Q48.9844,481.0625 48.6484,480.6484 Q48.3125,480.2344 47.6875,479.9844 L46.4844,479.5313 Z "/><text fill="#000000" font-family="sans-serif" font-size="12" font-style="italic" lengthAdjust="spacingAndGlyphs" textLength="73" x="88" y="476.1387">«Singleton»</text><text fill="#000000" font-family="sans-serif" font-size="12" lengthAdjust="spacingAndGlyphs" textLength="127" x="61" y="490.1074">Helper::Environment</text><line style="stroke: #383838; stroke-width: 1.5;" x1="33" x2="190" y1="497.9375" y2="497.9375"/><line style="stroke: #383838; stroke-width: 1.5;" x1="33" x2="190" y1="505.9375" y2="505.9375"/><path d="M111.5,413.339 C111.5,428.5638 111.5,445.9242 111.5,459.8571 " fill="none" style="stroke: #383838; stroke-width: 1.0;"/><polygon fill="#FFFFFF" points="111.5,400.116,107.5,406.116,111.5,412.116,115.5,406.116,111.5,400.116" style="stroke: #383838; stroke-width: 1.0;"/><path d="M413.964,280.682 C404.13,284.65 394.106,288.533 384.5,292 C320.431,315.125 246.429,337.353 191.648,352.977 " fill="none" style="stroke: #383838; stroke-width: 1.0;"/><polygon fill="none" points="411.322,274.2,432.48,273.037,416.666,287.14,411.322,274.2" style="stroke: #383838; stroke-width: 1.0;"/><path d="M235.94,285.087 C206.356,306.462 169.389,333.173 143.462,351.906 " fill="none" style="stroke: #383838; stroke-width: 1.0;"/><polygon fill="none" points="232.055,279.258,252.365,273.219,240.254,290.606,232.055,279.258" style="stroke: #383838; stroke-width: 1.0;"/><path d="M111.5,312.495 C111.5,326.489 111.5,340.483 111.5,351.672 " fill="none" style="stroke: #383838; stroke-width: 1.0;"/><polygon fill="none" points="104.5001,312.319,111.5,292.319,118.5,312.319,104.5001,312.319" style="stroke: #383838; stroke-width: 1.0;"/><path d="M54.5411,164.193 C47.941,177.71 42.2409,191.89 38.5,206 C28.7051,242.946 25.0106,256.237 38.5,292 C47.3721,315.521 66.2797,336.704 82.6288,351.783 " fill="none" style="stroke: #383838; stroke-width: 1.0;"/><polygon fill="none" points="48.4841,160.672,63.9997,146.241,60.8702,167.198,48.4841,160.672" style="stroke: #383838; stroke-width: 1.0;"/><path d="M111.5,159.52 C111.5,175.523 111.5,191.69 111.5,205.749 " fill="none" style="stroke: #383838; stroke-width: 1.0;"/><polygon fill="#FFFFFF" points="111.5,146.166,107.5,152.166,111.5,158.166,115.5,152.166,111.5,146.166" style="stroke: #383838; stroke-width: 1.0;"/><path d="M229.624,131.837 C298.469,163.214 381.742,201.167 433.932,224.953 " fill="none" style="stroke: #383838; stroke-width: 1.0;"/><polygon fill="#383838" points="217.389,126.26,221.1896,132.3882,228.3082,131.237,224.5076,125.1087,217.389,126.26" style="stroke: #383838; stroke-width: 1.0;"/><path d="M523.362,281.544 C550.34,303.442 585.674,332.122 610.048,351.906 " fill="none" style="stroke: #383838; stroke-width: 1.0;"/><polygon fill="#383838" points="513.105,273.219,515.2424,280.106,522.4218,280.7819,520.2844,273.8948,513.105,273.219" style="stroke: #383838; stroke-width: 1.0;"/><path d="M578.553,276.72 C657.297,299.09 768.502,330.683 843.386,351.956 " fill="none" style="stroke: #383838; stroke-width: 1.0;"/><polygon fill="#383838" points="565.716,273.073,570.3945,278.5604,577.2592,276.3524,572.5807,270.865,565.716,273.073" style="stroke: #383838; stroke-width: 1.0;"/><path d="M450.784,282.419 C428.13,304.201 398.82,332.385 378.518,351.906 " fill="none" style="stroke: #383838; stroke-width: 1.0;"/><polygon fill="#383838" points="460.353,273.219,453.2555,274.4939,451.7025,281.5358,458.8001,280.2609,460.353,273.219" style="stroke: #383838; stroke-width: 1.0;"/><path d="M638.5,420.1708 C638.5,434.7659 638.5,450.495 638.5,462.9172 " fill="none" style="stroke: #383838; stroke-width: 1.0;"/><polygon fill="none" points="631.5,420.1161,638.5,400.116,645.5,420.1161,631.5,420.1161" style="stroke: #383838; stroke-width: 1.0;"/><path d="M354.5,420.1708 C354.5,434.7659 354.5,450.495 354.5,462.9172 " fill="none" style="stroke: #383838; stroke-width: 1.0;"/><polygon fill="none" points="347.5,420.1161,354.5,400.116,361.5,420.1161,347.5,420.1161" style="stroke: #383838; stroke-width: 1.0;"/><path d="M924.5,420.1708 C924.5,434.7659 924.5,450.495 924.5,462.9172 " fill="none" style="stroke: #383838; stroke-width: 1.0;"/><polygon fill="none" points="917.5,420.1161,924.5,400.116,931.5,420.1161,917.5,420.1161" style="stroke: #383838; stroke-width: 1.0;"/></g></svg>