<?xml version="1.0" encoding="UTF-8" standalone="no"?><svg xmlns="http://www.w3.org/2000/svg" xmlns:xlink="http://www.w3.org/1999/xlink" contentScriptType="application/ecmascript" contentStyleType="text/css" height="517px" preserveAspectRatio="none" style="width:1542px;height:517px;" version="1.1" viewBox="0 0 1542 517" width="1542px" zoomAndPan="magnify"><defs><filter height="300%" id="fstm3u5" width="300%" x="-1" y="-1"><feGaussianBlur result="blurOut" stdDeviation="2.0"/><feColorMatrix in="blurOut" result="blurOut2" type="matrix" values="0 0 0 0 0 0 0 0 0 0 0 0 0 0 0 0 0 0 .4 0"/><feOffset dx="4.0" dy="4.0" in="blurOut2" result="blurOut3"/><feBlend in="SourceGraphic" in2="blurOut3" mode="normal"/></filter></defs><g><!--class Deeploy::Configurable--><rect fill="#F8F8F8" filter="url(#fstm3u5)" height="48" style="stroke: #383838; stroke-width: 1.5;" width="169" x="694" y="8"/><ellipse cx="709" cy="24" fill="#C2C2C2" rx="11" ry="11" style="stroke: #383838; stroke-width: 1.0;"/><path d="M711.9688,29.6406 Q711.3906,29.9375 710.75,30.0859 Q710.1094,30.2344 709.4063,30.2344 Q706.9063,30.2344 705.5859,28.5859 Q704.2656,26.9375 704.2656,23.8125 Q704.2656,20.6875 705.5859,19.0313 Q706.9063,17.375 709.4063,17.375 Q710.1094,17.375 710.7578,17.5313 Q711.4063,17.6875 711.9688,17.9844 L711.9688,20.7031 Q711.3438,20.125 710.75,19.8516 Q710.1563,19.5781 709.5313,19.5781 Q708.1875,19.5781 707.5,20.6484 Q706.8125,21.7188 706.8125,23.8125 Q706.8125,25.9063 707.5,26.9766 Q708.1875,28.0469 709.5313,28.0469 Q710.1563,28.0469 710.75,27.7734 Q711.3438,27.5 711.9688,26.9219 L711.9688,29.6406 Z "/><text fill="#000000" font-family="sans-serif" font-size="12" lengthAdjust="spacingAndGlyphs" textLength="137" x="723" y="28.1543">Deeploy::Configurable</text><line style="stroke: #383838; stroke-width: 1.5;" x1="695" x2="862" y1="40" y2="40"/><line style="stroke: #383838; stroke-width: 1.5;" x1="695" x2="862" y1="48" y2="48"/><!--class Deeploy::Configuration--><rect fill="#F8F8F8" filter="url(#fstm3u5)" height="48" style="stroke: #383838; stroke-width: 1.5;" width="174" x="691.5" y="333"/><ellipse cx="706.5" cy="349" fill="#C2C2C2" rx="11" ry="11" style="stroke: #383838; stroke-width: 1.0;"/><path d="M709.4688,354.6406 Q708.8906,354.9375 708.25,355.0859 Q707.6094,355.2344 706.9063,355.2344 Q704.4063,355.2344 703.0859,353.5859 Q701.7656,351.9375 701.7656,348.8125 Q701.7656,345.6875 703.0859,344.0313 Q704.4063,342.375 706.9063,342.375 Q707.6094,342.375 708.2578,342.5313 Q708.9063,342.6875 709.4688,342.9844 L709.4688,345.7031 Q708.8438,345.125 708.25,344.8516 Q707.6563,344.5781 707.0313,344.5781 Q705.6875,344.5781 705,345.6484 Q704.3125,346.7188 704.3125,348.8125 Q704.3125,350.9063 705,351.9766 Q705.6875,353.0469 707.0313,353.0469 Q707.6563,353.0469 708.25,352.7734 Q708.8438,352.5 709.4688,351.9219 L709.4688,354.6406 Z "/><text fill="#000000" font-family="sans-serif" font-size="12" lengthAdjust="spacingAndGlyphs" textLength="142" x="720.5" y="353.1543">Deeploy::Configuration</text><line style="stroke: #383838; stroke-width: 1.5;" x1="692.5" x2="864.5" y1="365" y2="365"/><line style="stroke: #383838; stroke-width: 1.5;" x1="692.5" x2="864.5" y1="373" y2="373"/><!--class Deeploy::Confmanager--><rect fill="#F8F8F8" filter="url(#fstm3u5)" height="48" style="stroke: #383838; stroke-width: 1.5;" width="174" x="348.5" y="161"/><ellipse cx="363.5" cy="177" fill="#C2C2C2" rx="11" ry="11" style="stroke: #383838; stroke-width: 1.0;"/><path d="M366.4688,182.6406 Q365.8906,182.9375 365.25,183.0859 Q364.6094,183.2344 363.9063,183.2344 Q361.4063,183.2344 360.0859,181.5859 Q358.7656,179.9375 358.7656,176.8125 Q358.7656,173.6875 360.0859,172.0313 Q361.4063,170.375 363.9063,170.375 Q364.6094,170.375 365.2578,170.5313 Q365.9063,170.6875 366.4688,170.9844 L366.4688,173.7031 Q365.8438,173.125 365.25,172.8516 Q364.6563,172.5781 364.0313,172.5781 Q362.6875,172.5781 362,173.6484 Q361.3125,174.7188 361.3125,176.8125 Q361.3125,178.9063 362,179.9766 Q362.6875,181.0469 364.0313,181.0469 Q364.6563,181.0469 365.25,180.7734 Q365.8438,180.5 366.4688,179.9219 L366.4688,182.6406 Z "/><text fill="#000000" font-family="sans-serif" font-size="12" lengthAdjust="spacingAndGlyphs" textLength="142" x="377.5" y="181.1543">Deeploy::Confmanager</text><line style="stroke: #383838; stroke-width: 1.5;" x1="349.5" x2="521.5" y1="193" y2="193"/><line style="stroke: #383838; stroke-width: 1.5;" x1="349.5" x2="521.5" y1="201" y2="201"/><!--class Deeploy::Config::PuppetConfig--><rect fill="#F8F8F8" filter="url(#fstm3u5)" height="48" style="stroke: #383838; stroke-width: 1.5;" width="221" x="92" y="161"/><ellipse cx="107" cy="177" fill="#C2C2C2" rx="11" ry="11" style="stroke: #383838; stroke-width: 1.0;"/><path d="M109.9688,182.6406 Q109.3906,182.9375 108.75,183.0859 Q108.1094,183.2344 107.4063,183.2344 Q104.9063,183.2344 103.5859,181.5859 Q102.2656,179.9375 102.2656,176.8125 Q102.2656,173.6875 103.5859,172.0313 Q104.9063,170.375 107.4063,170.375 Q108.1094,170.375 108.7578,170.5313 Q109.4063,170.6875 109.9688,170.9844 L109.9688,173.7031 Q109.3438,173.125 108.75,172.8516 Q108.1563,172.5781 107.5313,172.5781 Q106.1875,172.5781 105.5,173.6484 Q104.8125,174.7188 104.8125,176.8125 Q104.8125,178.9063 105.5,179.9766 Q106.1875,181.0469 107.5313,181.0469 Q108.1563,181.0469 108.75,180.7734 Q109.3438,180.5 109.9688,179.9219 L109.9688,182.6406 Z "/><text fill="#000000" font-family="sans-serif" font-size="12" lengthAdjust="spacingAndGlyphs" textLength="189" x="121" y="181.1543">Deeploy::Config::PuppetConfig</text><line style="stroke: #383838; stroke-width: 1.5;" x1="93" x2="312" y1="193" y2="193"/><line style="stroke: #383838; stroke-width: 1.5;" x1="93" x2="312" y1="201" y2="201"/><!--class Deeploy::Config::ShellConfig--><rect fill="#F8F8F8" filter="url(#fstm3u5)" height="48" style="stroke: #383838; stroke-width: 1.5;" width="206" x="1055.5" y="333"/><ellipse cx="1070.5" cy="349" fill="#C2C2C2" rx="11" ry="11" style="stroke: #383838; stroke-width: 1.0;"/><path d="M1073.4688,354.6406 Q1072.8906,354.9375 1072.25,355.0859 Q1071.6094,355.2344 1070.9063,355.2344 Q1068.4063,355.2344 1067.0859,353.5859 Q1065.7656,351.9375 1065.7656,348.8125 Q1065.7656,345.6875 1067.0859,344.0313 Q1068.4063,342.375 1070.9063,342.375 Q1071.6094,342.375 1072.2578,342.5313 Q1072.9063,342.6875 1073.4688,342.9844 L1073.4688,345.7031 Q1072.8438,345.125 1072.25,344.8516 Q1071.6563,344.5781 1071.0313,344.5781 Q1069.6875,344.5781 1069,345.6484 Q1068.3125,346.7188 1068.3125,348.8125 Q1068.3125,350.9063 1069,351.9766 Q1069.6875,353.0469 1071.0313,353.0469 Q1071.6563,353.0469 1072.25,352.7734 Q1072.8438,352.5 1073.4688,351.9219 L1073.4688,354.6406 Z "/><text fill="#000000" font-family="sans-serif" font-size="12" lengthAdjust="spacingAndGlyphs" textLength="174" x="1084.5" y="353.1543">Deeploy::Config::ShellConfig</text><line style="stroke: #383838; stroke-width: 1.5;" x1="1056.5" x2="1260.5" y1="365" y2="365"/><line style="stroke: #383838; stroke-width: 1.5;" x1="1056.5" x2="1260.5" y1="373" y2="373"/><!--class Deeploy::Config::VagrantConfig--><rect fill="#F8F8F8" filter="url(#fstm3u5)" height="48" style="stroke: #383838; stroke-width: 1.5;" width="226" x="1296.5" y="333"/><ellipse cx="1311.5" cy="349" fill="#C2C2C2" rx="11" ry="11" style="stroke: #383838; stroke-width: 1.0;"/><path d="M1314.4688,354.6406 Q1313.8906,354.9375 1313.25,355.0859 Q1312.6094,355.2344 1311.9063,355.2344 Q1309.4063,355.2344 1308.0859,353.5859 Q1306.7656,351.9375 1306.7656,348.8125 Q1306.7656,345.6875 1308.0859,344.0313 Q1309.4063,342.375 1311.9063,342.375 Q1312.6094,342.375 1313.2578,342.5313 Q1313.9063,342.6875 1314.4688,342.9844 L1314.4688,345.7031 Q1313.8438,345.125 1313.25,344.8516 Q1312.6563,344.5781 1312.0313,344.5781 Q1310.6875,344.5781 1310,345.6484 Q1309.3125,346.7188 1309.3125,348.8125 Q1309.3125,350.9063 1310,351.9766 Q1310.6875,353.0469 1312.0313,353.0469 Q1312.6563,353.0469 1313.25,352.7734 Q1313.8438,352.5 1314.4688,351.9219 L1314.4688,354.6406 Z "/><text fill="#000000" font-family="sans-serif" font-size="12" lengthAdjust="spacingAndGlyphs" textLength="194" x="1325.5" y="353.1543">Deeploy::Config::VagrantConfig</text><line style="stroke: #383838; stroke-width: 1.5;" x1="1297.5" x2="1521.5" y1="365" y2="365"/><line style="stroke: #383838; stroke-width: 1.5;" x1="1297.5" x2="1521.5" y1="373" y2="373"/><!--class Deeploy::DISTRIBUTION::PuppetConfig--><rect fill="#F8F8F8" filter="url(#fstm3u5)" height="48" style="stroke: #383838; stroke-width: 1.5;" width="265" x="6" y="460"/><ellipse cx="21" cy="476" fill="#C2C2C2" rx="11" ry="11" style="stroke: #383838; stroke-width: 1.0;"/><path d="M23.9688,481.6406 Q23.3906,481.9375 22.75,482.0859 Q22.1094,482.2344 21.4063,482.2344 Q18.9063,482.2344 17.5859,480.5859 Q16.2656,478.9375 16.2656,475.8125 Q16.2656,472.6875 17.5859,471.0313 Q18.9063,469.375 21.4063,469.375 Q22.1094,469.375 22.7578,469.5313 Q23.4063,469.6875 23.9688,469.9844 L23.9688,472.7031 Q23.3438,472.125 22.75,471.8516 Q22.1563,471.5781 21.5313,471.5781 Q20.1875,471.5781 19.5,472.6484 Q18.8125,473.7188 18.8125,475.8125 Q18.8125,477.9063 19.5,478.9766 Q20.1875,480.0469 21.5313,480.0469 Q22.1563,480.0469 22.75,479.7734 Q23.3438,479.5 23.9688,478.9219 L23.9688,481.6406 Z "/><text fill="#000000" font-family="sans-serif" font-size="12" lengthAdjust="spacingAndGlyphs" textLength="233" x="35" y="480.1543">Deeploy::DISTRIBUTION::PuppetConfig</text><line style="stroke: #383838; stroke-width: 1.5;" x1="7" x2="270" y1="492" y2="492"/><line style="stroke: #383838; stroke-width: 1.5;" x1="7" x2="270" y1="500" y2="500"/><!--class Deeploy::DISTRIBUTION::ShellConfig--><rect fill="#F8F8F8" filter="url(#fstm3u5)" height="48" style="stroke: #383838; stroke-width: 1.5;" width="250" x="967.5" y="460"/><ellipse cx="982.5" cy="476" fill="#C2C2C2" rx="11" ry="11" style="stroke: #383838; stroke-width: 1.0;"/><path d="M985.4688,481.6406 Q984.8906,481.9375 984.25,482.0859 Q983.6094,482.2344 982.9063,482.2344 Q980.4063,482.2344 979.0859,480.5859 Q977.7656,478.9375 977.7656,475.8125 Q977.7656,472.6875 979.0859,471.0313 Q980.4063,469.375 982.9063,469.375 Q983.6094,469.375 984.2578,469.5313 Q984.9063,469.6875 985.4688,469.9844 L985.4688,472.7031 Q984.8438,472.125 984.25,471.8516 Q983.6563,471.5781 983.0313,471.5781 Q981.6875,471.5781 981,472.6484 Q980.3125,473.7188 980.3125,475.8125 Q980.3125,477.9063 981,478.9766 Q981.6875,480.0469 983.0313,480.0469 Q983.6563,480.0469 984.25,479.7734 Q984.8438,479.5 985.4688,478.9219 L985.4688,481.6406 Z "/><text fill="#000000" font-family="sans-serif" font-size="12" lengthAdjust="spacingAndGlyphs" textLength="218" x="996.5" y="480.1543">Deeploy::DISTRIBUTION::ShellConfig</text><line style="stroke: #383838; stroke-width: 1.5;" x1="968.5" x2="1216.5" y1="492" y2="492"/><line style="stroke: #383838; stroke-width: 1.5;" x1="968.5" x2="1216.5" y1="500" y2="500"/><!--class Deeploy::DISTRIBUTION::VagrantConfig--><rect fill="#F8F8F8" filter="url(#fstm3u5)" height="48" style="stroke: #383838; stroke-width: 1.5;" width="270" x="1263.5" y="460"/><ellipse cx="1278.5" cy="476" fill="#C2C2C2" rx="11" ry="11" style="stroke: #383838; stroke-width: 1.0;"/><path d="M1281.4688,481.6406 Q1280.8906,481.9375 1280.25,482.0859 Q1279.6094,482.2344 1278.9063,482.2344 Q1276.4063,482.2344 1275.0859,480.5859 Q1273.7656,478.9375 1273.7656,475.8125 Q1273.7656,472.6875 1275.0859,471.0313 Q1276.4063,469.375 1278.9063,469.375 Q1279.6094,469.375 1280.2578,469.5313 Q1280.9063,469.6875 1281.4688,469.9844 L1281.4688,472.7031 Q1280.8438,472.125 1280.25,471.8516 Q1279.6563,471.5781 1279.0313,471.5781 Q1277.6875,471.5781 1277,472.6484 Q1276.3125,473.7188 1276.3125,475.8125 Q1276.3125,477.9063 1277,478.9766 Q1277.6875,480.0469 1279.0313,480.0469 Q1279.6563,480.0469 1280.25,479.7734 Q1280.8438,479.5 1281.4688,478.9219 L1281.4688,481.6406 Z "/><text fill="#000000" font-family="sans-serif" font-size="12" lengthAdjust="spacingAndGlyphs" textLength="238" x="1292.5" y="480.1543">Deeploy::DISTRIBUTION::VagrantConfig</text><line style="stroke: #383838; stroke-width: 1.5;" x1="1264.5" x2="1532.5" y1="492" y2="492"/><line style="stroke: #383838; stroke-width: 1.5;" x1="1264.5" x2="1532.5" y1="500" y2="500"/><!--class Deeploy::User--><rect fill="#F8F8F8" filter="url(#fstm3u5)" height="86.4141" style="stroke: #383838; stroke-width: 1.5;" width="119" x="901" y="314"/><ellipse cx="916" cy="330" fill="#C2C2C2" rx="11" ry="11" style="stroke: #383838; stroke-width: 1.0;"/><path d="M918.9688,335.6406 Q918.3906,335.9375 917.75,336.0859 Q917.1094,336.2344 916.4063,336.2344 Q913.9063,336.2344 912.5859,334.5859 Q911.2656,332.9375 911.2656,329.8125 Q911.2656,326.6875 912.5859,325.0313 Q913.9063,323.375 916.4063,323.375 Q917.1094,323.375 917.7578,323.5313 Q918.4063,323.6875 918.9688,323.9844 L918.9688,326.7031 Q918.3438,326.125 917.75,325.8516 Q917.1563,325.5781 916.5313,325.5781 Q915.1875,325.5781 914.5,326.6484 Q913.8125,327.7188 913.8125,329.8125 Q913.8125,331.9063 914.5,332.9766 Q915.1875,334.0469 916.5313,334.0469 Q917.1563,334.0469 917.75,333.7734 Q918.3438,333.5 918.9688,332.9219 L918.9688,335.6406 Z "/><text fill="#000000" font-family="sans-serif" font-size="12" lengthAdjust="spacingAndGlyphs" textLength="87" x="930" y="334.1543">Deeploy::User</text><line style="stroke: #383838; stroke-width: 1.5;" x1="902" x2="1019" y1="346" y2="346"/><text fill="#000000" font-family="sans-serif" font-size="11" lengthAdjust="spacingAndGlyphs" textLength="54" x="907" y="360.2104">Integer id</text><text fill="#000000" font-family="sans-serif" font-size="11" lengthAdjust="spacingAndGlyphs" textLength="69" x="907" y="373.0151">String email</text><text fill="#000000" font-family="sans-serif" font-size="11" lengthAdjust="spacingAndGlyphs" textLength="69" x="907" y="385.8198">String token</text><line style="stroke: #383838; stroke-width: 1.5;" x1="902" x2="1019" y1="392.4141" y2="392.4141"/><!--class Deeploy::VM--><rect fill="#F8F8F8" filter="url(#fstm3u5)" height="137.6328" style="stroke: #383838; stroke-width: 1.5;" width="219" x="832" y="116"/><ellipse cx="899.25" cy="132" fill="#C2C2C2" rx="11" ry="11" style="stroke: #383838; stroke-width: 1.0;"/><path d="M902.2188,137.6406 Q901.6406,137.9375 901,138.0859 Q900.3594,138.2344 899.6563,138.2344 Q897.1563,138.2344 895.8359,136.5859 Q894.5156,134.9375 894.5156,131.8125 Q894.5156,128.6875 895.8359,127.0313 Q897.1563,125.375 899.6563,125.375 Q900.3594,125.375 901.0078,125.5313 Q901.6563,125.6875 902.2188,125.9844 L902.2188,128.7031 Q901.5938,128.125 901,127.8516 Q900.4063,127.5781 899.7813,127.5781 Q898.4375,127.5781 897.75,128.6484 Q897.0625,129.7188 897.0625,131.8125 Q897.0625,133.9063 897.75,134.9766 Q898.4375,136.0469 899.7813,136.0469 Q900.4063,136.0469 901,135.7734 Q901.5938,135.5 902.2188,134.9219 L902.2188,137.6406 Z "/><text fill="#000000" font-family="sans-serif" font-size="12" lengthAdjust="spacingAndGlyphs" textLength="76" x="919.75" y="136.1543">Deeploy::VM</text><line style="stroke: #383838; stroke-width: 1.5;" x1="833" x2="1050" y1="148" y2="148"/><text fill="#000000" font-family="sans-serif" font-size="11" lengthAdjust="spacingAndGlyphs" textLength="119" x="838" y="162.2104">Deeploy::User owner</text><text fill="#000000" font-family="sans-serif" font-size="11" lengthAdjust="spacingAndGlyphs" textLength="102" x="838" y="175.0151">String distribution</text><text fill="#000000" font-family="sans-serif" font-size="11" lengthAdjust="spacingAndGlyphs" textLength="59" x="838" y="187.8198">String title</text><text fill="#000000" font-family="sans-serif" font-size="11" lengthAdjust="spacingAndGlyphs" textLength="48" x="838" y="200.6245">String ip</text><text fill="#000000" font-family="sans-serif" font-size="11" lengthAdjust="spacingAndGlyphs" textLength="61" x="838" y="213.4292">String root</text><text fill="#000000" font-family="sans-serif" font-size="11" lengthAdjust="spacingAndGlyphs" textLength="88" x="838" y="226.2339">String manifest</text><text fill="#000000" font-family="sans-serif" font-size="11" lengthAdjust="spacingAndGlyphs" textLength="207" x="838" y="239.0386">Deeploy::Configuration configuration</text><line style="stroke: #383838; stroke-width: 1.5;" x1="833" x2="1050" y1="245.6328" y2="245.6328"/><!--class Deeploy::Environment--><rect fill="#F8F8F8" filter="url(#fstm3u5)" height="53.9375" style="stroke: #383838; stroke-width: 1.5;" width="168" x="557.5" y="158"/><ellipse cx="572.5" cy="176.9688" fill="#929292" rx="11" ry="11" style="stroke: #383838; stroke-width: 1.0;"/><path d="M571.9844,177.5313 Q570.125,176.8281 569.4766,176.0547 Q568.8281,175.2813 568.8281,173.9688 Q568.8281,172.2813 569.9063,171.3125 Q570.9844,170.3438 572.8594,170.3438 Q573.7188,170.3438 574.5703,170.5391 Q575.4219,170.7344 576.2656,171.125 L576.2656,173.5156 Q575.4844,172.9531 574.6641,172.6641 Q573.8438,172.375 573.0469,172.375 Q572.1719,172.375 571.6953,172.7344 Q571.2188,173.0938 571.2188,173.75 Q571.2188,174.2656 571.5625,174.6016 Q571.9063,174.9375 573,175.3438 L574.0625,175.75 Q575.5469,176.2969 576.2578,177.2031 Q576.9688,178.1094 576.9688,179.4844 Q576.9688,181.3594 575.8594,182.2813 Q574.75,183.2031 572.5,183.2031 Q571.5781,183.2031 570.6563,182.9844 Q569.7344,182.7656 568.875,182.3438 L568.875,179.8125 Q569.8438,180.5 570.7656,180.8438 Q571.6875,181.1875 572.5781,181.1875 Q573.4844,181.1875 573.9844,180.7734 Q574.4844,180.3594 574.4844,179.625 Q574.4844,179.0625 574.1484,178.6484 Q573.8125,178.2344 573.1875,177.9844 L571.9844,177.5313 Z "/><text fill="#000000" font-family="sans-serif" font-size="12" font-style="italic" lengthAdjust="spacingAndGlyphs" textLength="73" x="618" y="174.1387">«Singleton»</text><text fill="#000000" font-family="sans-serif" font-size="12" lengthAdjust="spacingAndGlyphs" textLength="136" x="586.5" y="188.1074">Deeploy::Environment</text><line style="stroke: #383838; stroke-width: 1.5;" x1="558.5" x2="724.5" y1="195.9375" y2="195.9375"/><line style="stroke: #383838; stroke-width: 1.5;" x1="558.5" x2="724.5" y1="203.9375" y2="203.9375"/><!--class Deeploy::DISTRIBUTION::FirewallConfig--><rect fill="#F8F8F8" filter="url(#fstm3u5)" height="48" style="stroke: #383838; stroke-width: 1.5;" width="266" x="321.5" y="460"/><ellipse cx="336.5" cy="476" fill="#C2C2C2" rx="11" ry="11" style="stroke: #383838; stroke-width: 1.0;"/><path d="M339.4688,481.6406 Q338.8906,481.9375 338.25,482.0859 Q337.6094,482.2344 336.9063,482.2344 Q334.4063,482.2344 333.0859,480.5859 Q331.7656,478.9375 331.7656,475.8125 Q331.7656,472.6875 333.0859,471.0313 Q334.4063,469.375 336.9063,469.375 Q337.6094,469.375 338.2578,469.5313 Q338.9063,469.6875 339.4688,469.9844 L339.4688,472.7031 Q338.8438,472.125 338.25,471.8516 Q337.6563,471.5781 337.0313,471.5781 Q335.6875,471.5781 335,472.6484 Q334.3125,473.7188 334.3125,475.8125 Q334.3125,477.9063 335,478.9766 Q335.6875,480.0469 337.0313,480.0469 Q337.6563,480.0469 338.25,479.7734 Q338.8438,479.5 339.4688,478.9219 L339.4688,481.6406 Z "/><text fill="#000000" font-family="sans-serif" font-size="12" lengthAdjust="spacingAndGlyphs" textLength="234" x="350.5" y="480.1543">Deeploy::DISTRIBUTION::FirewallConfig</text><line style="stroke: #383838; stroke-width: 1.5;" x1="322.5" x2="586.5" y1="492" y2="492"/><line style="stroke: #383838; stroke-width: 1.5;" x1="322.5" x2="586.5" y1="500" y2="500"/><!--class Deeploy::DISTRIBUTION::PackagesConfig--><rect fill="#F8F8F8" filter="url(#fstm3u5)" height="48" style="stroke: #383838; stroke-width: 1.5;" width="281" x="630" y="460"/><ellipse cx="645" cy="476" fill="#C2C2C2" rx="11" ry="11" style="stroke: #383838; stroke-width: 1.0;"/><path d="M647.9688,481.6406 Q647.3906,481.9375 646.75,482.0859 Q646.1094,482.2344 645.4063,482.2344 Q642.9063,482.2344 641.5859,480.5859 Q640.2656,478.9375 640.2656,475.8125 Q640.2656,472.6875 641.5859,471.0313 Q642.9063,469.375 645.4063,469.375 Q646.1094,469.375 646.7578,469.5313 Q647.4063,469.6875 647.9688,469.9844 L647.9688,472.7031 Q647.3438,472.125 646.75,471.8516 Q646.1563,471.5781 645.5313,471.5781 Q644.1875,471.5781 643.5,472.6484 Q642.8125,473.7188 642.8125,475.8125 Q642.8125,477.9063 643.5,478.9766 Q644.1875,480.0469 645.5313,480.0469 Q646.1563,480.0469 646.75,479.7734 Q647.3438,479.5 647.9688,478.9219 L647.9688,481.6406 Z "/><text fill="#000000" font-family="sans-serif" font-size="12" lengthAdjust="spacingAndGlyphs" textLength="249" x="659" y="480.1543">Deeploy::DISTRIBUTION::PackagesConfig</text><line style="stroke: #383838; stroke-width: 1.5;" x1="631" x2="910" y1="492" y2="492"/><line style="stroke: #383838; stroke-width: 1.5;" x1="631" x2="910" y1="500" y2="500"/><!--class Deeploy::Config::FirewallConfig--><rect fill="#F8F8F8" filter="url(#fstm3u5)" height="48" style="stroke: #383838; stroke-width: 1.5;" width="222" x="161.5" y="333"/><ellipse cx="176.5" cy="349" fill="#C2C2C2" rx="11" ry="11" style="stroke: #383838; stroke-width: 1.0;"/><path d="M179.4688,354.6406 Q178.8906,354.9375 178.25,355.0859 Q177.6094,355.2344 176.9063,355.2344 Q174.4063,355.2344 173.0859,353.5859 Q171.7656,351.9375 171.7656,348.8125 Q171.7656,345.6875 173.0859,344.0313 Q174.4063,342.375 176.9063,342.375 Q177.6094,342.375 178.2578,342.5313 Q178.9063,342.6875 179.4688,342.9844 L179.4688,345.7031 Q178.8438,345.125 178.25,344.8516 Q177.6563,344.5781 177.0313,344.5781 Q175.6875,344.5781 175,345.6484 Q174.3125,346.7188 174.3125,348.8125 Q174.3125,350.9063 175,351.9766 Q175.6875,353.0469 177.0313,353.0469 Q177.6563,353.0469 178.25,352.7734 Q178.8438,352.5 179.4688,351.9219 L179.4688,354.6406 Z "/><text fill="#000000" font-family="sans-serif" font-size="12" lengthAdjust="spacingAndGlyphs" textLength="190" x="190.5" y="353.1543">Deeploy::Config::FirewallConfig</text><line style="stroke: #383838; stroke-width: 1.5;" x1="162.5" x2="382.5" y1="365" y2="365"/><line style="stroke: #383838; stroke-width: 1.5;" x1="162.5" x2="382.5" y1="373" y2="373"/><!--class Deeploy::Config::PackagesConfig--><rect fill="#F8F8F8" filter="url(#fstm3u5)" height="48" style="stroke: #383838; stroke-width: 1.5;" width="237" x="419" y="333"/><ellipse cx="434" cy="349" fill="#C2C2C2" rx="11" ry="11" style="stroke: #383838; stroke-width: 1.0;"/><path d="M436.9688,354.6406 Q436.3906,354.9375 435.75,355.0859 Q435.1094,355.2344 434.4063,355.2344 Q431.9063,355.2344 430.5859,353.5859 Q429.2656,351.9375 429.2656,348.8125 Q429.2656,345.6875 430.5859,344.0313 Q431.9063,342.375 434.4063,342.375 Q435.1094,342.375 435.7578,342.5313 Q436.4063,342.6875 436.9688,342.9844 L436.9688,345.7031 Q436.3438,345.125 435.75,344.8516 Q435.1563,344.5781 434.5313,344.5781 Q433.1875,344.5781 432.5,345.6484 Q431.8125,346.7188 431.8125,348.8125 Q431.8125,350.9063 432.5,351.9766 Q433.1875,353.0469 434.5313,353.0469 Q435.1563,353.0469 435.75,352.7734 Q436.3438,352.5 436.9688,351.9219 L436.9688,354.6406 Z "/><text fill="#000000" font-family="sans-serif" font-size="12" lengthAdjust="spacingAndGlyphs" textLength="205" x="448" y="353.1543">Deeploy::Config::PackagesConfig</text><line style="stroke: #383838; stroke-width: 1.5;" x1="420" x2="655" y1="365" y2="365"/><line style="stroke: #383838; stroke-width: 1.5;" x1="420" x2="655" y1="373" y2="373"/><path d="M748.34,66.242 C723.307,93.833 688.199,132.528 665.161,157.921 " fill="none" style="stroke: #383838; stroke-width: 1.0;"/><polygon fill="#FFFFFF" points="757.394,56.263,750.4,58.0189,749.3308,65.1503,756.3248,63.3944,757.394,56.263" style="stroke: #383838; stroke-width: 1.0;"/><path d="M778.5,76.315 C778.5,145.705 778.5,279.414 778.5,332.981 " fill="none" style="stroke: #383838; stroke-width: 1.0;"/><polygon fill="none" points="771.5,76.229,778.5,56.229,785.5,76.229,771.5,76.229" style="stroke: #383838; stroke-width: 1.0;"/><path d="M676.94,62.192 C633.608,76.186 583.089,94.585 539.5,116 C513.749,128.652 486.684,146.511 466.62,160.753 " fill="none" style="stroke: #383838; stroke-width: 1.0;"/><polygon fill="none" points="675.113,55.428,696.293,56.077,679.331,68.777,675.113,55.428" style="stroke: #383838; stroke-width: 1.0;"/><path d="M883.003,49.392 C956.544,63.309 1045.76,85.836 1068.5,116 C1105.42,164.974 1092.78,197.676 1068.5,254 C1058.24,277.802 1039.39,298.636 1020.28,315.164 " fill="none" style="stroke: #383838; stroke-width: 1.0;"/><polygon fill="none" points="881.651,56.261,863.234,45.782,884.166,42.489,881.651,56.261" style="stroke: #383838; stroke-width: 1.0;"/><path d="M818.687,70.229 C833.621,84.063 851.07,100.227 868.049,115.956 " fill="none" style="stroke: #383838; stroke-width: 1.0;"/><polygon fill="none" points="813.526,74.99,803.612,56.263,823.041,64.719,813.526,74.99" style="stroke: #383838; stroke-width: 1.0;"/><path d="M950.611,267.52 C952.4,283.523 954.207,299.69 955.778,313.749 " fill="none" style="stroke: #383838; stroke-width: 1.0;"/><polygon fill="#FFFFFF" points="949.119,254.166,945.8104,260.5733,950.4523,266.0917,953.7609,259.6844,949.119,254.166" style="stroke: #383838; stroke-width: 1.0;"/><path d="M866.975,263.725 C842.91,288.824 818.028,314.775 800.804,332.738 " fill="none" style="stroke: #383838; stroke-width: 1.0;"/><polygon fill="#383838" points="876.141,254.166,869.1013,255.7288,867.8363,262.8281,874.876,261.2653,876.141,254.166" style="stroke: #383838; stroke-width: 1.0;"/><path d="M848.122,385.877 C859.926,390.595 872.062,395.441 883.5,400 C934.455,420.3088 992.432,443.3261 1034.38,459.9617 " fill="none" style="stroke: #383838; stroke-width: 1.0;"/><polygon fill="#383838" points="835.983,381.023,840.0687,386.965,847.125,385.479,843.0393,379.537,835.983,381.023" style="stroke: #383838; stroke-width: 1.0;"/><path d="M841.729,385.896 C855.32,391.153 869.738,396.189 883.5,400 C919.503,409.9698 1123.04,441.5678 1263.19,462.7722 " fill="none" style="stroke: #383838; stroke-width: 1.0;"/><polygon fill="#383838" points="829.524,381.035,833.6181,386.9712,840.6723,385.4751,836.5782,379.5389,829.524,381.035" style="stroke: #383838; stroke-width: 1.0;"/><path d="M715.288,385.958 C701.696,391.211 687.273,396.229 673.5,400 C635.424,410.4236 416.917,442.9113 271.193,464.015 " fill="none" style="stroke: #383838; stroke-width: 1.0;"/><polygon fill="#383838" points="727.493,381.098,720.4388,379.6019,716.3447,385.5381,723.3989,387.0342,727.493,381.098" style="stroke: #383838; stroke-width: 1.0;"/><path d="M709.149,385.948 C697.271,390.675 685.042,395.505 673.5,400 C620.646,420.5844 560.365,443.381 516.446,459.8666 " fill="none" style="stroke: #383838; stroke-width: 1.0;"/><polygon fill="#383838" points="721.355,381.077,714.2999,379.5851,710.2093,385.5237,717.2644,387.0156,721.355,381.077" style="stroke: #383838; stroke-width: 1.0;"/><path d="M776.177,394.291 C774.823,415.458 773.155,441.5227 771.978,459.9058 " fill="none" style="stroke: #383838; stroke-width: 1.0;"/><polygon fill="#383838" points="777.014,381.219,772.6384,386.9509,776.2465,393.1944,780.6221,387.4625,777.014,381.219" style="stroke: #383838; stroke-width: 1.0;"/><path d="M1136.74,399.209 C1126.09,419.3851 1113.66,442.9233 1104.69,459.9058 " fill="none" style="stroke: #383838; stroke-width: 1.0;"/><polygon fill="none" points="1130.71,395.636,1146.24,381.219,1143.09,402.173,1130.71,395.636" style="stroke: #383838; stroke-width: 1.0;"/><path d="M178.56,226.78 C165.556,251.201 150.698,283.362 143.5,314 C131.517,365.007 133.814,427.0472 136.303,459.9362 " fill="none" style="stroke: #383838; stroke-width: 1.0;"/><polygon fill="none" points="172.584,223.122,188.41,209.031,184.825,229.916,172.584,223.122" style="stroke: #383838; stroke-width: 1.0;"/><path d="M1405.68,401.406 C1403.95,421.0752 1401.97,443.5361 1400.53,459.9058 " fill="none" style="stroke: #383838; stroke-width: 1.0;"/><polygon fill="none" points="1398.73,400.528,1407.46,381.219,1412.68,401.755,1398.73,400.528" style="stroke: #383838; stroke-width: 1.0;"/><path d="M219.845,228.123 C233.488,261.256 251.98,306.166 263.029,333 " fill="none" style="stroke: #383838; stroke-width: 1.0;"/><polygon fill="none" points="213.229,230.44,212.086,209.281,226.174,225.11,213.229,230.44" style="stroke: #383838; stroke-width: 1.0;"/><path d="M263.106,218.683 C284.346,230.008 308.411,242.694 330.5,254 C384.708,281.747 447.52,312.503 489.608,332.913 " fill="none" style="stroke: #383838; stroke-width: 1.0;"/><polygon fill="none" points="259.62,224.757,245.288,209.15,266.225,212.412,259.62,224.757" style="stroke: #383838; stroke-width: 1.0;"/><path d="M323.151,392.788 C354.345,414.2124 393.472,441.085 420.875,459.9058 " fill="none" style="stroke: #383838; stroke-width: 1.0;"/><polygon fill="none" points="318.829,398.312,306.306,381.219,326.755,386.771,318.829,398.312" style="stroke: #383838; stroke-width: 1.0;"/><path d="M598.198,390.563 C638.724,412.3048 691.046,440.3744 727.349,459.8505 " fill="none" style="stroke: #383838; stroke-width: 1.0;"/><polygon fill="none" points="594.822,396.696,580.507,381.073,601.441,384.359,594.822,396.696" style="stroke: #383838; stroke-width: 1.0;"/></g></svg>