<?xml version="1.0" encoding="UTF-8" standalone="no"?>
<svg width="21px" height="21px" viewBox="0 0 21 21" version="1.1" xmlns="http://www.w3.org/2000/svg" xmlns:xlink="http://www.w3.org/1999/xlink">
    <!-- Generator: Sketch 3.8.3 (29802) - http://www.bohemiancoding.com/sketch -->
    <title>Fill 1</title>
    <desc>Created with Sketch.</desc>
    <defs></defs>
    <g id="V6" stroke="none" stroke-width="1" fill="none" fill-rule="evenodd">
        <g id="Full-Case-Study" transform="translate(-405.000000, -6241.000000)" fill="#000000">
            <path d="M422.442469,6245.84181 C422.253469,6246.09775 420.750656,6248.0245 417.434625,6249.37834 C417.643312,6249.80556 417.843469,6250.24 418.029844,6250.67706 C418.095469,6250.83194 418.159781,6250.98616 418.222781,6251.13972 C421.20675,6250.76434 424.172344,6251.36612 424.467656,6251.42847 C424.447969,6249.31206 423.691969,6247.36825 422.442469,6245.84181 M413.398687,6242.79419 C413.64675,6243.12625 415.275562,6245.34437 416.744906,6248.04419 C419.934281,6246.84916 421.284188,6245.03463 421.445625,6244.80494 C419.861438,6243.39925 417.779156,6242.54481 415.5,6242.54481 C414.776813,6242.54481 414.073312,6242.63144 413.398687,6242.79419 M406.720687,6249.67628 C407.122313,6249.68219 410.817656,6249.69794 415.012406,6248.58363 C413.526656,6245.94222 411.923437,6243.72147 411.687187,6243.39663 C409.178344,6244.5805 407.302781,6246.89378 406.720687,6249.67628 M408.837094,6257.50994 C409.040531,6257.16278 411.502125,6253.08681 416.127375,6251.59188 C416.244188,6251.55381 416.362313,6251.51837 416.480437,6251.48491 C416.255344,6250.97566 416.010562,6250.46509 415.753969,6249.96306 C411.274406,6251.30313 406.928719,6251.24734 406.536281,6251.23947 C406.533656,6251.33069 406.531687,6251.42191 406.531687,6251.51378 C406.531687,6253.81656 407.4045,6255.91984 408.837094,6257.50994 M419.003719,6259.76941 C418.8705,6258.98256 418.349438,6256.24009 417.090094,6252.96803 C417.070406,6252.97459 417.050719,6252.98116 417.031031,6252.98772 C411.972656,6254.75106 410.156813,6258.25872 409.995375,6258.58881 C411.515906,6259.77466 413.426906,6260.48209 415.5,6260.48209 C416.742281,6260.48209 417.926812,6260.22812 419.003719,6259.76941 M424.355437,6252.93719 C424.048969,6252.84072 421.5795,6252.10375 418.768781,6252.55394 C419.942156,6255.77744 420.41925,6258.40244 420.511125,6258.94778 C422.523188,6257.58738 423.955781,6255.43225 424.355437,6252.93719 M415.5,6262 C409.710562,6262 405,6257.28944 405,6251.5 C405,6245.70991 409.710562,6241 415.5,6241 C421.290094,6241 426,6245.70991 426,6251.5 C426,6257.28944 421.290094,6262 415.5,6262" id="Fill-1"></path>
        </g>
    </g>
</svg>