<?xml version="1.0" encoding="UTF-8" standalone="no"?>
<svg width="21px" height="21px" viewBox="0 0 21 21" version="1.1" xmlns="http://www.w3.org/2000/svg" xmlns:xlink="http://www.w3.org/1999/xlink">
    <!-- Generator: Sketch 3.8.3 (29802) - http://www.bohemiancoding.com/sketch -->
    <title>Page 1</title>
    <desc>Created with Sketch.</desc>
    <defs></defs>
    <g id="V6" stroke="none" stroke-width="1" fill="none" fill-rule="evenodd">
        <g id="Full-Case-Study" transform="translate(-448.000000, -6242.000000)" fill="#000000">
            <path d="M469,6252.5 C469,6254.40509 468.530781,6256.16187 467.591687,6257.77034 C466.65325,6259.37881 465.378812,6260.65325 463.770344,6261.59169 C462.161875,6262.53078 460.405094,6263 458.5,6263 C456.594906,6263 454.838125,6262.53078 453.229656,6261.59169 C451.621188,6260.65325 450.34675,6259.37881 449.408313,6257.77034 C448.469219,6256.16187 448,6254.40509 448,6252.5 C448,6250.59491 448.469219,6248.83813 449.408313,6247.22966 C450.34675,6245.62119 451.621188,6244.34675 453.229656,6243.40831 C454.838125,6242.46922 456.594906,6242 458.5,6242 C460.405094,6242 462.161875,6242.46922 463.770344,6243.40831 C465.378812,6244.34675 466.65325,6245.62119 467.591687,6247.22966 C468.530781,6248.83813 469,6250.59491 469,6252.5 M467.249781,6252.5 C467.249781,6251.31481 467.017469,6250.18278 466.552844,6249.10259 C466.087562,6248.02241 465.466094,6247.0925 464.686469,6246.31353 C463.9075,6245.53391 462.977594,6244.91178 461.897406,6244.44716 C460.817219,6243.98253 459.685187,6243.75022 458.5,6243.75022 C457.314813,6243.75022 456.182781,6243.98253 455.102594,6244.44716 C454.022406,6244.91178 453.0925,6245.53391 452.313531,6246.31353 C451.533906,6247.0925 450.911781,6248.02241 450.447156,6249.10259 C449.982531,6250.18278 449.749563,6251.31481 449.749563,6252.5 C449.749563,6254.40509 450.317219,6256.12972 451.451875,6257.67453 C452.587187,6259.22 454.061125,6260.27459 455.875,6260.83962 L455.875,6258.52963 C455.382812,6258.59328 455.068469,6258.62478 454.931312,6258.62478 C453.929219,6258.62478 453.231625,6258.16934 452.839844,6257.25781 C452.702688,6256.91131 452.538625,6256.62453 452.347656,6256.39616 C452.302375,6256.34169 452.206563,6256.25506 452.060219,6256.13694 C451.914531,6256.01816 451.78525,6255.90856 451.671063,6255.80881 C451.556875,6255.70841 451.499781,6255.63556 451.499781,6255.58962 C451.499781,6255.48069 451.62775,6255.42556 451.882375,6255.42556 C452.146844,6255.42556 452.381781,6255.49184 452.587187,6255.62375 C452.791938,6255.75631 452.965188,6255.91578 453.106281,6256.10281 C453.248031,6256.28919 453.391094,6256.47819 453.536781,6256.66981 C453.683125,6256.86144 453.867531,6257.02353 454.090656,6257.15544 C454.314437,6257.28734 454.571687,6257.35362 454.863063,6257.35362 C455.245656,6257.35362 455.615125,6257.28997 455.970813,6257.162 C456.1165,6256.64225 456.403937,6256.23669 456.831813,6255.94531 C455.319156,6255.79962 454.197625,6255.419 453.468531,6254.80344 C452.739438,6254.18853 452.374563,6253.16544 452.374563,6251.73416 C452.374563,6250.65856 452.707938,6249.75622 453.372719,6249.02712 C453.245406,6248.64453 453.18175,6248.26194 453.18175,6247.87869 C453.18175,6247.35041 453.304469,6246.85362 453.550563,6246.38834 C454.070312,6246.38834 454.530344,6246.47759 454.931312,6246.65544 C455.332938,6246.83328 455.792969,6247.10891 456.312063,6247.48231 C457.005063,6247.31825 457.7755,6247.23622 458.622719,6247.23622 C459.352469,6247.23622 460.049406,6247.30906 460.714844,6247.45541 C461.233938,6247.09053 461.692656,6246.82147 462.089031,6246.64822 C462.485406,6246.47497 462.938875,6246.38834 463.448781,6246.38834 C463.694875,6246.85362 463.81825,6247.35041 463.81825,6247.87869 C463.81825,6248.27113 463.754594,6248.64912 463.626625,6249.014 C464.292062,6249.76081 464.624781,6250.66775 464.624781,6251.73416 C464.624781,6253.16544 464.260562,6254.19312 463.530813,6254.81722 C462.802375,6255.44131 461.685437,6255.82194 460.181312,6255.95909 C460.810656,6256.38763 461.125,6256.98416 461.125,6257.75 L461.125,6260.83962 C462.938875,6260.27459 464.412812,6259.22 465.548125,6257.67453 C466.682781,6256.12972 467.249781,6254.40509 467.249781,6252.5" id="Page-1"></path>
        </g>
    </g>
</svg>