<?xml version="1.0" encoding="UTF-8" standalone="no"?>
<svg width="21px" height="21px" viewBox="0 0 21 21" version="1.1" xmlns="http://www.w3.org/2000/svg" xmlns:xlink="http://www.w3.org/1999/xlink">
    <!-- Generator: Sketch 3.8.3 (29802) - http://www.bohemiancoding.com/sketch -->
    <title>Fill 1</title>
    <desc>Created with Sketch.</desc>
    <defs></defs>
    <g id="V6" stroke="none" stroke-width="1" fill="none" fill-rule="evenodd">
        <g id="Full-Case-Study" transform="translate(-484.000000, -6242.000000)" fill="#000000">
            <path d="M491.294875,6253.02377 C491.294875,6251.1969 491.235813,6249.66952 491.176094,6248.35111 L495.074875,6248.35111 L495.282906,6250.38829 L495.3715,6250.38829 C495.961469,6249.42926 497.409156,6248.02234 499.831375,6248.02234 C502.7845,6248.02234 505,6250.02957 505,6254.34284 L505,6263 L500.510594,6263 L500.510594,6254.88192 C500.510594,6252.99515 499.859594,6251.70669 498.235375,6251.70669 C496.995063,6251.70669 496.258094,6252.5752 495.932594,6253.41377 C495.813812,6253.71325 495.784281,6254.13187 495.784281,6254.55248 L495.784281,6263 L491.294875,6263 L491.294875,6253.02377 Z M484.118781,6262.99867 L488.608187,6262.99867 L488.608187,6248.35111 L484.118781,6248.35111 L484.118781,6262.99867 Z M488.755187,6244.27676 C488.755187,6245.53461 487.839063,6246.55286 486.332969,6246.55286 C484.915469,6246.55286 484,6245.53461 484,6244.27676 C484,6242.98897 484.946312,6242 486.392688,6242 C487.839063,6242 488.725656,6242.98897 488.755187,6244.27676 L488.755187,6244.27676 Z" id="Fill-1"></path>
        </g>
    </g>
</svg>