<svg id="Layer_1" data-name="Layer 1" xmlns="http://www.w3.org/2000/svg" viewBox="0 0 49.25 49.25"><title>linkedin</title><path d="M209.42,28.35v0l0,0h0Z" transform="translate(-183.65 -5.13)"/><path fill="#187FB8" d="M208.27,5.13a24.63,24.63,0,1,0,24.62,24.62A24.63,24.63,0,0,0,208.27,5.13Zm-6,35.12h-4.63V26.34h4.63V40.25Zm-2.31-15.81h0a2.41,2.41,0,1,1,2.65-2.4,2.4,2.4,0,0,1-2.65,2.4Zm19,15.81h-4.62V32.8c0-1.87-.67-3.15-2.34-3.15a2.54,2.54,0,0,0-2.37,1.69,3.15,3.15,0,0,0-.15,1.13v7.77h-4.62s0.06-12.61,0-13.91h4.62v2a4.59,4.59,0,0,1,4.17-2.3c3,0,5.33,2,5.33,6.26v8Z" transform="translate(-183.65 -5.13)"/></svg>
