<?xml version="1.0" encoding="UTF-8" standalone="no"?>
<svg width="21px" height="17px" viewBox="0 0 21 17" version="1.1" xmlns="http://www.w3.org/2000/svg" xmlns:xlink="http://www.w3.org/1999/xlink">
    <!-- Generator: Sketch 3.8.3 (29802) - http://www.bohemiancoding.com/sketch -->
    <title>Fill 1</title>
    <desc>Created with Sketch.</desc>
    <defs></defs>
    <g id="V6" stroke="none" stroke-width="1" fill="none" fill-rule="evenodd">
        <g id="Full-Case-Study" transform="translate(-370.000000, -6242.000000)" fill="#000000">
            <path d="M391,6244.01273 C390.227594,6244.35396 389.397438,6244.58471 388.525281,6244.68865 C389.415156,6244.15719 390.098313,6243.31589 390.419875,6242.31443 C389.58775,6242.80601 388.665062,6243.16292 387.683969,6243.35576 C386.898438,6242.52165 385.778219,6242 384.539219,6242 C382.159656,6242 380.230937,6243.92186 380.230937,6246.29151 C380.230937,6246.62816 380.268344,6246.95566 380.3425,6247.27009 C376.761344,6247.09033 373.587063,6245.38222 371.462125,6242.78574 C371.091344,6243.41983 370.878719,6244.15719 370.878719,6244.94359 C370.878719,6246.43271 371.639313,6247.74598 372.794969,6248.51538 C372.088844,6248.49316 371.424719,6248.30032 370.843937,6247.9787 C370.843281,6247.99635 370.843281,6248.01465 370.843281,6248.0323 C370.843281,6250.1117 372.328375,6251.84661 374.29975,6252.24079 C373.938156,6252.33884 373.557531,6252.39114 373.164438,6252.39114 C372.886844,6252.39114 372.617125,6252.36434 372.353969,6252.31466 C372.901937,6254.0195 374.493344,6255.26021 376.37875,6255.29486 C374.904156,6256.44601 373.046312,6257.13174 371.027688,6257.13174 C370.679875,6257.13174 370.337312,6257.11147 370,6257.0716 C371.906406,6258.28943 374.171125,6259 376.603844,6259 C384.529375,6259 388.862594,6252.46043 388.862594,6246.78897 C388.862594,6246.60332 388.858656,6246.41833 388.850125,6246.23398 C389.692094,6245.62932 390.4225,6244.87299 391,6244.01273" id="Fill-1"></path>
        </g>
    </g>
</svg>