<?xml version="1.0" encoding="UTF-8" standalone="no"?>
<svg width="18px" height="21px" viewBox="0 0 18 21" version="1.1" xmlns="http://www.w3.org/2000/svg" xmlns:xlink="http://www.w3.org/1999/xlink">
    <!-- Generator: Sketch 3.8.3 (29802) - http://www.bohemiancoding.com/sketch -->
    <title>Group 15</title>
    <desc>Created with Sketch.</desc>
    <defs></defs>
    <g id="V6" stroke="none" stroke-width="1" fill="none" fill-rule="evenodd">
        <g id="Full-Case-Study" transform="translate(-518.000000, -6242.000000)" fill="#000000">
            <g id="Group-15" transform="translate(518.000000, 6242.000000)">
                <path d="M14.2790786,7.9781625 L14.2790786,2.12769375 L13.2408643,2.12769375 L13.2408643,6.59938125 C13.0107214,6.93144375 12.7934357,7.0961625 12.58515,7.0961625 C12.44565,7.0961625 12.3640071,7.01150625 12.3415071,6.84744375 C12.3292929,6.81331875 12.3292929,6.68338125 12.3292929,6.43531875 L12.3292929,2.12769375 L11.2942929,2.12769375 L11.2942929,6.75425625 C11.2942929,7.1670375 11.3290071,7.44725625 11.3862214,7.62444375 C11.4890786,7.91975625 11.7205071,8.05888125 12.0547929,8.05888125 C12.4334357,8.05888125 12.8268643,7.8246 13.2408643,7.33963125 L13.2408643,7.9781625 L14.2790786,7.9781625 Z M9.40043571,6.28438125 C9.40043571,6.82513125 9.23972143,7.0961625 8.90479286,7.0961625 C8.57050714,7.0961625 8.40979286,6.82513125 8.40979286,6.28438125 L8.40979286,3.8227875 C8.40979286,3.2820375 8.57050714,3.0116625 8.90479286,3.0116625 C9.23972143,3.0116625 9.40043571,3.2820375 9.40043571,3.8227875 L9.40043571,6.28438125 Z M10.43865,6.08356875 L10.43865,4.0354125 C10.43865,3.41000625 10.3345071,2.95325625 10.1165786,2.6572875 C9.82986429,2.256975 9.42550714,2.05813125 8.90479286,2.05813125 C8.38729286,2.05813125 7.98357857,2.256975 7.69686429,2.6572875 C7.47572143,2.95325625 7.37157857,3.41000625 7.37157857,4.0354125 L7.37157857,6.08356875 C7.37157857,6.70635 7.47572143,7.1670375 7.69686429,7.459725 C7.98357857,7.858725 8.38729286,8.05888125 8.90479286,8.05888125 C9.42550714,8.05888125 9.82986429,7.858725 10.1165786,7.459725 C10.3345071,7.1670375 10.43865,6.70635 10.43865,6.08356875 L10.43865,6.08356875 Z M7.36193571,0.12744375 L6.19772143,0.12744375 L5.41150714,3.21050625 L4.59443571,0.12744375 L3.38265,0.12744375 C3.62565,0.855225 3.87765,1.5862875 4.12065,2.314725 C4.49029286,3.41000625 4.72043571,4.23556875 4.82457857,4.79863125 L4.82457857,7.9781625 L5.97657857,7.9781625 L5.97657857,4.79863125 L7.36193571,0.12744375 Z" id="Fill-1"></path>
                <g id="Group-5" transform="translate(3.214286, 0.000131)">
                    <path d="M11.0685857,7.85052188 L11.0685857,2.00070938 L10.0297286,2.00070938 L10.0297286,6.47174063 C9.79958571,6.80380313 9.58101429,6.96786563 9.37401429,6.96786563 C9.23451429,6.96786563 9.15287143,6.88386563 9.13037143,6.71980313 C9.11815714,6.68567813 9.11815714,6.55639688 9.11815714,6.30702188 L9.11815714,2.00070938 L8.08251429,2.00070938 L8.08251429,6.62661563 C8.08251429,7.03939688 8.11722857,7.31961563 8.17444286,7.49614688 C8.27794286,7.79277188 8.50872857,7.93189688 8.84365714,7.93189688 C9.2223,7.93189688 9.61637143,7.69695938 10.0297286,7.21199063 L10.0297286,7.85052188 L11.0685857,7.85052188 Z M6.1893,6.15608438 C6.1893,6.69749063 6.02922857,6.96786563 5.6943,6.96786563 C5.35872857,6.96786563 5.19801429,6.69749063 5.19801429,6.15608438 L5.19801429,3.69514688 C5.19801429,3.15374063 5.35872857,2.88467813 5.6943,2.88467813 C6.02922857,2.88467813 6.1893,3.15374063 6.1893,3.69514688 L6.1893,6.15608438 Z M7.22815714,5.95658438 L7.22815714,3.90711563 C7.22815714,3.28236563 7.12272857,2.82495938 6.90544286,2.52964688 C6.61808571,2.12933438 6.21437143,1.92917813 5.6943,1.92917813 C5.1768,1.92917813 4.77244286,2.12933438 4.48508571,2.52964688 C4.26458571,2.82495938 4.1598,3.28236563 4.1598,3.90711563 L4.1598,5.95658438 C4.1598,6.57805313 4.26458571,7.03939688 4.48508571,7.33274063 C4.77244286,7.73108438 5.1768,7.93189688 5.6943,7.93189688 C6.21437143,7.93189688 6.61808571,7.73108438 6.90544286,7.33274063 C7.12272857,7.03939688 7.22815714,6.57805313 7.22815714,5.95658438 L7.22815714,5.95658438 Z M4.15015714,-0.000196875 L2.98594286,-0.000196875 L2.20037143,3.08286563 L1.3833,-0.000196875 L0.171514286,-0.000196875 C0.413871429,0.726928125 0.666514286,1.45930313 0.909514286,2.18708438 C1.27851429,3.28236563 1.5093,4.10727188 1.61344286,4.67099063 L1.61344286,7.85052188 L2.7648,7.85052188 L2.7648,4.67099063 L4.15015714,-0.000196875 Z" id="Fill-3"></path>
                </g>
                <g id="Group-8" transform="translate(0.000000, 8.531381)">
                    <path d="M16.3796786,7.47173438 L14.3251071,7.47173438 L14.3251071,8.49810938 C14.3251071,9.03360938 14.49675,9.30070313 14.8496786,9.30070313 C15.1023214,9.30070313 15.2501786,9.16092188 15.3086786,8.88004688 C15.3183214,8.82360938 15.3311786,8.59064063 15.3311786,8.16998438 L16.3796786,8.16998438 L16.3796786,8.32289063 C16.3796786,8.66085938 16.3668214,8.89317188 16.3578214,8.99882813 C16.3231071,9.23114063 16.2421071,9.44114063 16.1180357,9.62751563 C15.83325,10.0475156 15.4115357,10.2548906 14.8753929,10.2548906 C14.3373214,10.2548906 13.9278214,10.0573594 13.6314643,9.66164063 C13.4135357,9.37223438 13.3010357,8.91548438 13.3010357,8.30057813 L13.3010357,6.27210938 C13.3010357,5.65392188 13.4000357,5.20176563 13.6186071,4.90907813 C13.9156071,4.51204688 14.3251071,4.31517188 14.8496786,4.31517188 C15.36525,4.31517188 15.77475,4.51204688 16.0621071,4.90907813 C16.2768214,5.20176563 16.3796786,5.65392188 16.3796786,6.27210938 L16.3796786,7.47173438 Z M12.5013214,8.43773438 C12.5013214,8.97323438 12.4666071,9.35845313 12.3984643,9.60389063 C12.2608929,10.0350469 11.98575,10.2548906 11.57625,10.2548906 C11.2111071,10.2548906 10.8581786,10.0475156 10.5148929,9.61373438 L10.5148929,10.1748281 L9.48696429,10.1748281 L9.48696429,2.40482813 L10.5148929,2.40482813 L10.5148929,4.94254688 C10.8466071,4.52648438 11.19825,4.31517188 11.57625,4.31517188 C11.98575,4.31517188 12.2608929,4.53501563 12.3984643,4.96879688 C12.4666071,5.20176563 12.5013214,5.58435938 12.5013214,6.13232813 L12.5013214,8.43773438 Z M8.59789286,10.1748281 L7.56932143,10.1748281 L7.56932143,9.54351563 C7.16110714,10.0219219 6.77346429,10.2548906 6.39546429,10.2548906 C6.06439286,10.2548906 5.83617857,10.1170781 5.73267857,9.82373438 C5.67675,9.64851563 5.64267857,9.37223438 5.64267857,8.96404688 L5.64267857,4.38604688 L6.66932143,4.38604688 L6.66932143,8.64839063 C6.66932143,8.89317188 6.66932143,9.02179688 6.67960714,9.05592188 C6.70403571,9.21867188 6.78246429,9.30070313 6.91939286,9.30070313 C7.12575,9.30070313 7.34110714,9.13860938 7.56932143,8.80982813 L7.56932143,4.38604688 L8.59789286,4.38604688 L8.59789286,10.1748281 Z M5.49289286,3.49879688 L4.26182143,3.49879688 L4.26182143,10.1748281 L3.11882143,10.1748281 L3.11882143,3.49879688 L1.91025,3.49879688 L1.91025,2.40482813 L5.49289286,2.40482813 L5.49289286,3.49879688 Z M17.3529643,2.31623438 C17.1446786,1.39354688 16.40475,0.713015625 15.5143929,0.611296875 C13.4058214,0.370453125 11.2721786,0.369796875 9.14753571,0.370453125 C7.02225,0.369796875 4.88860714,0.370453125 2.78003571,0.611296875 C1.88967857,0.713015625 1.15039286,1.39354688 0.94275,2.31623438 C0.64575,3.63201563 0.642535714,5.06592188 0.642535714,6.41910938 C0.642535714,7.77295313 0.642535714,9.20817188 0.938892857,10.5232969 C1.14717857,11.4466406 1.88582143,12.1271719 2.77617857,12.2282344 C4.88475,12.4684219 7.01839286,12.4697344 9.14367857,12.4684219 C11.2683214,12.4697344 13.4026071,12.4684219 15.5111786,12.2282344 C16.4008929,12.1271719 17.1414643,11.4466406 17.3491071,10.5232969 C17.6454643,9.20817188 17.6473929,7.77295313 17.6473929,6.41910938 C17.6473929,5.06592188 17.6486786,3.63201563 17.3529643,2.31623438 L17.3529643,2.31623438 Z" id="Fill-6"></path>
                </g>
                <path d="M11.0271214,13.7908313 C10.85805,13.7908313 10.68705,13.8728625 10.5147643,14.0454563 L10.5147643,17.5747688 C10.68705,17.7499875 10.85805,17.8320188 11.0271214,17.8320188 C11.3234786,17.8320188 11.4739071,17.5747688 11.4739071,17.0517375 L11.4739071,14.5809563 C11.4739071,14.0585813 11.3234786,13.7908313 11.0271214,13.7908313" id="Fill-9"></path>
                <path d="M14.8403571,13.7908313 C14.4970714,13.7908313 14.3247857,14.0585813 14.3247857,14.5940813 L14.3247857,15.1295813 L15.3527143,15.1295813 L15.3527143,14.5940813 C15.3527143,14.0585813 15.1804286,13.7908313 14.8403571,13.7908313" id="Fill-11"></path>
            </g>
        </g>
    </g>
</svg>